<svg xmlns="http://www.w3.org/2000/svg" viewBox="0 0 699.48 479.1"><defs><style>.cls-1{fill:#b8860b;}</style></defs><title>eye</title><g id="Calque_2" data-name="Calque 2"><g id="Calque_1-2" data-name="Calque 1"><g id="eye"><path id="path2223" class="cls-1" d="M480.4,475c-.4-2.5-.5-15.5-.2-28.8.6-30.9,3.5-45.5,25.8-129.8,9.9-37.7,10.9-63.3,2.6-67.1-7.4-3.4-15.1.9-27.3,15.1-38.5,44.9-98.9,98.7-146.7,130.4-102.2,67.9-210.8,92.5-275.1,62.1-47.4-22.4-71-79.3-54-130.3C21.7,278,84.7,260,121.4,293.39c18.3,16.7,13.8,46.1-8.7,57.4-18.2,9.1-41.1-9.5-35-28.4,2.1-6.6,1.8-6.8-6.7-4.1-49.7,16-39.1,88.5,15.7,108.3,63.4,22.9,163.1-8.8,262.8-83.4,39.6-29.6,87.2-78.7,81.6-84.2-1.6-1.6-23.9-1.2-45.1.8-62.3,6-136.6-6.1-224-36.6-11.3-3.9-27.5-9.5-36-12.5-18.4-6.3-52.8-15.1-76.5-19.4-9.3-1.7-18-3.3-19.3-3.6l-2.3-.4.3-21.6.3-21.6,8.5-1.9c33.5-7.6,89.8-21.7,136-34.1,103.2-27.7,114.2-30.4,135.4-33.8,72.5-11.6,112.2-4.4,263.8,48.3,28.5,9.9,60.1,12.4,87.7,6.9,6.3-1.3,13.5-2.2,15.9-2l4.4.3,9.3,20.5c5.1,11.3,9.3,20.8,9.3,21.1s-6.1,1.4-13.7,2.3c-58.4,7.5-91.6,20.9-110.4,44.8-14,17.8-17.7,25.7-20.5,44.1-4.3,28.4,2.2,38.5,33.8,52.3,8.1,3.6,8.1,3.7,1.5,5.2-25.4,5.9-37.2,19.7-49.7,58.4-20.3,62.4-40,98.4-56.2,102.4C481.2,479.39,481,479.29,480.4,475Zm-58.3-258.1c50.8-5.3,109.5-24.6,144.1-47.5l3.8-2.5-7.5-3.8a378.52,378.52,0,0,0-36.7-15.6c-24-8.9-42.8-14.6-50.2-16.6A527.25,527.25,0,0,0,422,119a309.65,309.65,0,0,0-45.3-5.9,295.71,295.71,0,0,0-43.9.9c-17.5,1.7-30.3,4.6-44.1,7.8-36,8.4-54.1,12.6-74.2,18-23,6.2-56.4,14.7-98.8,24.1l-8.5,1.9,13.5,4.2c7.4,2.3,31.7,10.2,54,17.6,57.9,19.2,90.4,26.5,135.9,30.5C326.3,219.69,405,218.69,422.1,216.89ZM33.3,101.69c.4-10.4,1.2-22.5,1.9-26.9l1.2-8h18c32.6-.1,48.6-4.2,142-36.4C271.3,4.59,347.4-5.61,401,3c45.6,7.4,96.5,20.6,154.9,40.3,57.4,19.3,88.1,22.4,123.5,12.5,3.1-.9,22.1,32.2,19.9,34.7-1.8,2-9,5-19.4,8s-53.4,4-67.8,1.5c-10.8-1.9-53.2-13.9-81.7-23.2-73.9-24.3-162.5-36.3-213.5-29.2-45.4,6.4-63.1,10.7-120.3,29.6-67.2,22.2-126.1,38-159.1,42.6l-4.9.7Z"/></g></g></g></svg>