<svg xmlns="http://www.w3.org/2000/svg" viewBox="0 0 474.53 110.23"><defs><style>.cls-1{fill:#b8860b;stroke:#b8860b;stroke-miterlimit:10;stroke-width:4px;}</style></defs><title>eyelid</title><g id="Calque_2" data-name="Calque 2"><g id="Calque_1-2" data-name="Calque 1"><g id="eye_close2"><path class="cls-1" d="M470.55,56.23l-3.8,2.5c-34.6,22.9-93.3,42.2-144.1,47.5-17.1,1.8-95.8,2.8-111.5,1.2-45.5-4-78-11.3-135.9-30.5-22.3-7.4-46.6-15.3-54-17.6l-13.5-4.2,8.5-1.9c42.4-9.4,75.8-17.9,98.8-24.1,20.1-5.4,38.2-9.6,74.2-18,13.8-3.2,26.6-6.1,44.1-7.8a295.71,295.71,0,0,1,43.9-.9,309.65,309.65,0,0,1,45.3,5.9,527.25,527.25,0,0,1,53.6,11.9c7.4,2,26.2,7.7,50.2,16.6a378.52,378.52,0,0,1,36.7,15.6Z"/></g></g></g></svg>